<svg xmlns="http://www.w3.org/2000/svg" xmlns:xlink="http://www.w3.org/1999/xlink" viewBox="0,0,256,256" width="100px" height="100px"><g fill="none" fill-rule="nonzero" stroke="none" stroke-width="1" stroke-linecap="butt" stroke-linejoin="miter" stroke-miterlimit="10" stroke-dasharray="" stroke-dashoffset="0" font-family="none" font-weight="none" font-size="none" text-anchor="none" style="mix-blend-mode: normal"><g transform="scale(2.56,2.56)"><path d="M87.738,22.962c-2.031,-2.14 -5.583,-2.344 -8.415,-2.383c-10.54,-0.148 -21.107,0.116 -31.655,0.258c-6.128,-0.195 -12.257,-0.39 -18.385,-0.585c-3.707,-0.118 -7.525,-0.403 -11.064,0.435c-0.487,-0.065 -0.999,-0.041 -1.527,0.115c-1.816,0.537 -3.202,1.305 -4.375,2.802c-0.358,0.457 -0.586,0.973 -0.721,1.511c-1.042,1.74 -1.145,3.68 -0.938,5.647c-0.182,12.268 0.473,24.669 -0.287,36.884c-0.233,3.748 0.2,7.948 3.797,10.121c2.376,1.435 5.647,0.91 8.3,0.982c3.046,0.083 6.146,0.166 9.269,0.212c10.884,0.507 21.894,0.174 32.697,0.143c5.46,-0.016 10.954,0.116 16.39,-0.491c2.721,-0.304 6.442,-0.482 7.954,-3.212c0.314,-0.567 0.495,-1.075 0.584,-1.542c0.192,-0.353 0.363,-0.726 0.483,-1.147c0.754,-2.659 0.349,-5.79 0.399,-8.533c0.065,-3.601 0.13,-7.202 0.195,-10.803c0.118,-6.547 0.237,-13.095 0.355,-19.642c0.082,-4.528 0.31,-8.347 -3.056,-10.772z" fill="#316db0"></path><path d="M15.625,42.313c3.217,0 3.223,-5 0,-5c-3.217,0 -3.223,5 0,5z" fill="#3158a7"></path><path d="M89.795,35.916c-1.47,-2.358 -5.092,-1.728 -7.439,-1.745c-5.578,-0.042 -11.156,-0.084 -16.733,-0.119c-10.989,-0.07 -21.978,-0.12 -32.968,-0.113c-5.886,0.004 -11.771,0.028 -17.656,0.069c-1.368,-1.124 -4.116,-0.504 -4.241,1.86c-0.113,2.135 0.006,4.233 0.271,6.339c-1.238,1.4 -0.647,4.244 1.785,4.239c19.203,-0.041 38.406,-0.083 57.609,-0.124c5.453,-0.012 10.906,-0.023 16.359,-0.035c0.318,-0.001 0.595,-0.057 0.849,-0.14c1.275,0.034 2.596,-0.765 2.637,-2.407c0.032,-1.288 0.063,-2.576 0.095,-3.865c0.033,-1.347 0.18,-2.759 -0.568,-3.959z" fill="#3158a7"></path><path d="M70.688,61.476c-0.015,-0.071 -0.048,-0.134 -0.066,-0.204c-0.132,-1.257 -0.637,-2.453 -1.632,-3.335c-0.323,-0.286 -0.678,-0.528 -1.046,-0.75c-1.258,-0.936 -2.838,-1.477 -4.384,-1.611c-2.588,-0.224 -5.082,1.068 -6.483,3.227c-0.371,0.572 -0.627,1.198 -0.784,1.846c-0.07,0.152 -0.147,0.299 -0.208,0.455c-0.461,1.181 -0.544,2.482 -0.312,3.723c0.275,1.475 1.305,2.589 2.46,3.459c1.828,1.376 4.217,1.709 6.426,1.34c2.21,-0.369 4.353,-1.849 5.377,-3.858c0.686,-1.343 0.961,-2.804 0.652,-4.292z" fill="#de333b"></path><path d="M77.504,57.894c-1.345,-1.155 -2.988,-1.817 -4.707,-1.852c-0.838,-0.071 -1.645,0.074 -2.397,0.381c-1.661,0.579 -3.046,1.83 -3.885,3.373c-0.061,0.105 -0.114,0.215 -0.169,0.324c-0.044,0.091 -0.092,0.18 -0.132,0.273c-0.116,0.262 -0.22,0.532 -0.299,0.816c0,0.001 0,0.002 0,0.003c-0.263,0.651 -0.439,1.339 -0.494,2.065c-0.135,1.785 0.745,3.707 2.117,4.84c1.703,1.406 3.738,1.83 5.896,1.491c0.053,-0.008 0.104,-0.024 0.157,-0.033c0.382,-0.005 0.765,-0.027 1.144,-0.089c2.32,-0.375 4.674,-2.278 5.144,-4.643c0.47,-2.371 -0.533,-5.368 -2.375,-6.949z" fill="#fea919"></path><path d="M69.345,58.327c-0.438,-0.596 -1.158,-0.57 -1.558,-0.169c-0.058,0.037 -0.122,0.063 -0.172,0.112c-1.163,1.157 -1.961,2.625 -2.149,4.264c-0.096,0.837 0.012,1.68 0.289,2.464c0.119,0.828 0.412,1.638 0.903,2.302c0.005,0.06 -0.005,0.115 0.012,0.177c0.132,0.479 0.725,0.897 1.23,0.698c1.894,-0.743 2.712,-2.663 2.898,-4.577c0.18,-1.839 -0.36,-3.782 -1.453,-5.271z" fill="#f09215"></path><path d="M12.658,35.761c0,0 -0.531,13.117 -1.127,34.321c-0.025,1.312 -0.131,2.711 -0.002,4.182c0.115,1.461 0.483,3.04 1.293,4.451c0.797,1.409 2.015,2.695 3.658,3.43c1.642,0.72 3.386,0.78 4.958,0.787c3.097,0.022 6.318,0.197 9.623,0.287c1.656,0.044 3.328,0.115 5.034,0.215c1.717,0.081 3.456,0.149 5.217,0.196c7.044,0.199 14.424,0.134 22.042,0.122c3.809,-0.021 7.666,0.062 11.661,0.007c1.993,-0.03 4.014,-0.107 6.054,-0.27c1.025,-0.084 2.036,-0.186 3.076,-0.32c1.046,-0.138 2.141,-0.33 3.256,-0.683c1.112,-0.358 2.25,-0.904 3.235,-1.739c0.995,-0.86 1.689,-1.885 2.21,-2.972c1.033,-2.217 1.14,-4.516 1.136,-6.547c-0.021,-0.991 -0.042,-1.978 -0.063,-2.961c-0.017,-0.921 0.009,-1.898 0.019,-2.872c0.025,-1.94 0.049,-3.865 0.073,-5.773c0.071,-7.62 0.139,-14.979 0.204,-22.008c0,-1.747 0.067,-3.479 -0.065,-5.306c-0.128,-1.792 -0.512,-3.795 -1.707,-5.446c-0.293,-0.402 -0.614,-0.789 -0.975,-1.119c-0.174,-0.174 -0.355,-0.337 -0.549,-0.479l-0.285,-0.221c-0.19,-0.155 0.064,0.068 -0.101,-0.081c-0.726,-0.708 -1.583,-1.215 -2.442,-1.566c-1.731,-0.696 -3.45,-0.86 -5.067,-0.93c-1.63,-0.065 -3.13,0.022 -4.643,0.048c-1.504,0.039 -2.982,0.077 -4.431,0.114c-2.892,0.079 -5.672,0.154 -8.329,0.227c-5.29,0.159 -10.092,0.303 -14.321,0.43c-2.109,0.106 -4.065,0.009 -5.87,0.022c-1.801,-0.01 -3.45,-0.02 -4.935,-0.028c-5.908,-0.017 -9.214,-0.027 -9.214,-0.027c0,0 3.302,0.201 9.204,0.559c1.485,0.086 3.133,0.182 4.934,0.286c1.804,0.078 3.765,0.272 5.871,0.266c4.226,0.058 9.025,0.124 14.311,0.196c2.655,0.029 5.433,0.059 8.323,0.091c1.448,0.014 2.924,0.028 4.427,0.042c1.496,0.025 3.062,-0.009 4.548,0.101c1.485,0.105 2.972,0.327 4.224,0.884c0.623,0.277 1.172,0.638 1.607,1.087c-0.021,-0.003 0.39,0.351 0.363,0.321l0.196,0.163c0.138,0.103 0.257,0.22 0.371,0.343c0.244,0.231 0.443,0.495 0.632,0.766c0.75,1.086 1.038,2.534 1.11,4.127c0.078,1.586 -0.022,3.32 -0.065,5.078c-0.189,7.026 -0.386,14.383 -0.591,22.001c-0.045,1.908 -0.09,3.833 -0.135,5.772c-0.019,0.966 -0.055,1.937 -0.045,2.973c0.014,0.972 0.028,1.948 0.042,2.928c0.003,1.883 -0.156,3.664 -0.84,5.091c-0.341,0.708 -0.808,1.371 -1.341,1.824c-0.556,0.469 -1.26,0.827 -2.072,1.089c-1.614,0.513 -3.634,0.674 -5.566,0.86c-1.944,0.162 -3.892,0.245 -5.839,0.287c-3.887,0.079 -7.798,0.033 -11.621,0.101c-7.645,0.105 -14.99,0.302 -21.972,0.264c-1.743,-0.023 -3.466,-0.047 -5.166,-0.07c-1.708,-0.057 -3.406,-0.085 -5.072,-0.083c-3.338,0.001 -6.567,-0.077 -9.707,0.001c-1.527,0.049 -2.928,0.003 -4.081,-0.461c-1.137,-0.456 -2.108,-1.37 -2.767,-2.449c-1.383,-2.184 -1.319,-4.93 -1.331,-7.573c-0.254,-21.228 -0.575,-34.356 -0.575,-34.356z" fill="#000000"></path></g></g></svg>